<svg id="visual" viewBox="0 0 900 600" width="900" height="600" xmlns="http://www.w3.org/2000/svg" xmlns:xlink="http://www.w3.org/1999/xlink" version="1.1"><rect x="0" y="0" width="900" height="600" fill="#002233"></rect><path d="M0 332L21.5 345.5C43 359 86 386 128.8 399C171.7 412 214.3 411 257.2 394.2C300 377.3 343 344.7 385.8 332.3C428.7 320 471.3 328 514.2 352.8C557 377.7 600 419.3 642.8 440C685.7 460.7 728.3 460.3 771.2 454.5C814 448.7 857 437.3 878.5 431.7L900 426L900 601L878.5 601C857 601 814 601 771.2 601C728.3 601 685.7 601 642.8 601C600 601 557 601 514.2 601C471.3 601 428.7 601 385.8 601C343 601 300 601 257.2 601C214.3 601 171.7 601 128.8 601C86 601 43 601 21.5 601L0 601Z" fill="#009473" stroke-linecap="round" stroke-linejoin="miter"></path></svg>